<?xml version="1.0" encoding="utf-8"?>
<!-- Generator: Adobe Illustrator 23.0.1, SVG Export Plug-In . SVG Version: 6.00 Build 0)  -->
<svg version="1.1" id="Camada_1" xmlns="http://www.w3.org/2000/svg" xmlns:xlink="http://www.w3.org/1999/xlink" x="0px" y="0px"
	 viewBox="0 0 500 500" style="enable-background:new 0 0 500 500;" xml:space="preserve">
<style type="text/css">
	.st0{fill:#534D4E;}
	.st1{fill:#FFFFFF;}
</style>
<g>
	<path class="st0" d="M249.99,498.83c-66.35,0-128.76-25.81-175.73-72.67C27.28,379.3,1.32,316.93,1.17,250.56
		C1.02,184.1,26.76,121.55,73.65,74.45S182.97,1.32,249.44,1.17l0.58,0c66.35,0,128.76,25.81,175.73,72.67
		c46.98,46.87,72.94,109.23,73.09,175.6c0.15,66.47-25.59,129.01-72.48,176.11c-46.89,47.11-109.32,73.13-175.79,73.28H249.99z"/>
	<path class="st1" d="M250.04,0v2.34c33.37,0,65.75,6.53,96.24,19.4c29.45,12.44,55.91,30.24,78.65,52.93
		c22.74,22.69,40.61,49.11,53.11,78.54c12.95,30.47,19.55,62.84,19.62,96.23c0.08,33.44-6.4,65.88-19.24,96.45
		c-12.41,29.52-30.2,56.05-52.9,78.84c-22.69,22.8-49.14,40.72-78.6,53.26c-30.5,12.98-62.92,19.6-96.36,19.68l-0.57,0
		c-33.38,0-65.76-6.53-96.25-19.4c-29.46-12.44-55.92-30.24-78.66-52.93c-22.74-22.69-40.61-49.11-53.12-78.54
		C9.02,316.33,2.41,283.95,2.34,250.56c-0.08-33.44,6.4-65.88,19.24-96.45c12.41-29.52,30.2-56.05,52.9-78.84
		c22.69-22.8,49.14-40.72,78.6-53.26C183.58,9.03,216,2.41,249.44,2.34l0.57,0L250.04,0 M250.01,0c-0.19,0-0.39,0-0.58,0
		C111.36,0.31-0.31,112.5,0,250.57C0.31,388.45,112.17,500,249.99,500c0.19,0,0.39,0,0.58,0C388.64,499.69,500.31,387.5,500,249.43
		C499.69,111.55,387.83-0.01,250.01,0L250.01,0z"/>
</g>
<g>
	<path class="st1" d="M471.76,154.85L224.05,335.18c-18.66,13.58-45.04,9.43-58.62-9.23l-3.92-5.39
		c-13.58-18.66-9.43-45.04,9.23-58.62L418.44,81.6c18.66-13.58,45.04-9.43,58.62,9.23l3.92,5.39
		C494.57,114.88,490.42,141.26,471.76,154.85z"/>
</g>
<path class="st1" d="M278.04,355.14L278.04,355.14c-6.43,0-11.68-5.26-11.68-11.68v0c0-6.43,5.26-11.68,11.68-11.68h0
	c6.43,0,11.68,5.26,11.68,11.68v0C289.72,349.88,284.46,355.14,278.04,355.14z"/>
<path class="st1" d="M247.66,398.87L247.66,398.87c-10.28,0-18.69-8.41-18.69-18.69v0c0-10.28,8.41-18.69,18.69-18.69h0
	c10.28,0,18.69,8.41,18.69,18.69v0C266.36,390.46,257.94,398.87,247.66,398.87z"/>
<text transform="matrix(1 0 0 1 -452.4287 292.6592)" style="fill:#9B8989; font-family:'Quicksand-Bold'; font-size:48px;">Almofariz</text>
<path class="st1" d="M297.9,383.18L297.9,383.18c-4.5,0-8.18-3.68-8.18-8.18v0c0-4.5,3.68-8.18,8.18-8.18l0,0
	c4.5,0,8.18,3.68,8.18,8.18v0C306.07,379.5,302.39,383.18,297.9,383.18z"/>
<path class="st1" d="M258.01,304.11c-18.67,27.09-35.25,54.94-67.79,50.04c-32.54-4.9-54.94-35.25-50.04-67.79
	c4.9-32.54,37.63-36.88,67.79-50.04C266,211,276,278,258.01,304.11z"/>
</svg>
